<svg xmlns="http://www.w3.org/2000/svg" xmlns:xlink="http://www.w3.org/1999/xlink" width="274" height="568" viewBox="0 0 274 568"><defs><path id="a" d="M0 0h274v568H0z"/></defs><g fill="none" fill-rule="evenodd"><mask id="b" fill="#fff"><use xlink:href="#a"/></mask><use xlink:href="#a" fill="#483EFF"/><path fill="#6259FF" d="M86.275 613c96.622-10.132 195.201-153.076 138.5-215.578-56.7-62.503-101.236 38.168-184.174 53.212-82.939 15.044-136.43 30.083-136.43 88.459 0 58.375 85.483 84.04 182.104 73.908Z" mask="url(#b)" transform="rotate(73 72.797 496.16)"/><path fill="#F9818E" d="M207.085 608.672c66.58-6.982 134.508-105.481 95.437-148.55-39.071-43.07-69.76 26.3-126.91 36.667C118.46 507.156 81.6 517.52 81.6 557.744c0 40.225 58.905 57.91 125.485 50.928Z" mask="url(#b)" transform="rotate(-19 197.797 528.16)"/><g stroke="#FFF" stroke-linecap="round" stroke-linejoin="bevel" stroke-width="5" mask="url(#b)"><path d="m165 469.206 10.607-10.806M209.155 474.69l-12.505-10.503M187.257 489.101l-6.909 14.798"/></g><circle cy="480" r="67" fill="#FFAF7E" mask="url(#b)"/></g></svg>